<svg width="173" height="55" viewBox="0 0 173 55" fill="none" xmlns="http://www.w3.org/2000/svg">
<path d="M30.0944 8.896C31.2944 8.896 32.3824 9.176 33.3584 9.736C34.3504 10.28 35.1264 11.056 35.6864 12.064C36.2464 13.056 36.5264 14.216 36.5264 15.544C36.5264 16.872 36.2464 18.04 35.6864 19.048C35.1264 20.04 34.3504 20.816 33.3584 21.376C32.3824 21.92 31.2944 22.192 30.0944 22.192C28.4464 22.192 27.1504 21.672 26.2064 20.632V26.656H22.4624V9.088H26.0384V10.576C26.9664 9.456 28.3184 8.896 30.0944 8.896ZM29.4464 19.12C30.4064 19.12 31.1904 18.8 31.7984 18.16C32.4224 17.504 32.7344 16.632 32.7344 15.544C32.7344 14.456 32.4224 13.592 31.7984 12.952C31.1904 12.296 30.4064 11.968 29.4464 11.968C28.4864 11.968 27.6944 12.296 27.0704 12.952C26.4624 13.592 26.1584 14.456 26.1584 15.544C26.1584 16.632 26.4624 17.504 27.0704 18.16C27.6944 18.8 28.4864 19.12 29.4464 19.12ZM45.1767 22.192C43.8167 22.192 42.5927 21.912 41.5047 21.352C40.4327 20.776 39.5927 19.984 38.9847 18.976C38.3767 17.968 38.0727 16.824 38.0727 15.544C38.0727 14.264 38.3767 13.12 38.9847 12.112C39.5927 11.104 40.4327 10.32 41.5047 9.76C42.5927 9.184 43.8167 8.896 45.1767 8.896C46.5367 8.896 47.7527 9.184 48.8247 9.76C49.8967 10.32 50.7367 11.104 51.3447 12.112C51.9527 13.12 52.2567 14.264 52.2567 15.544C52.2567 16.824 51.9527 17.968 51.3447 18.976C50.7367 19.984 49.8967 20.776 48.8247 21.352C47.7527 21.912 46.5367 22.192 45.1767 22.192ZM45.1767 19.12C46.1367 19.12 46.9207 18.8 47.5287 18.16C48.1527 17.504 48.4647 16.632 48.4647 15.544C48.4647 14.456 48.1527 13.592 47.5287 12.952C46.9207 12.296 46.1367 11.968 45.1767 11.968C44.2167 11.968 43.4247 12.296 42.8007 12.952C42.1767 13.592 41.8647 14.456 41.8647 15.544C41.8647 16.632 42.1767 17.504 42.8007 18.16C43.4247 18.8 44.2167 19.12 45.1767 19.12ZM71.2953 8.896C72.9113 8.896 74.1913 9.376 75.1353 10.336C76.0953 11.28 76.5753 12.704 76.5753 14.608V22H72.8313V15.184C72.8313 14.16 72.6153 13.4 72.1833 12.904C71.7673 12.392 71.1673 12.136 70.3833 12.136C69.5033 12.136 68.8073 12.424 68.2953 13C67.7833 13.56 67.5273 14.4 67.5273 15.52V22H63.7833V15.184C63.7833 13.152 62.9673 12.136 61.3353 12.136C60.4713 12.136 59.7833 12.424 59.2713 13C58.7593 13.56 58.5033 14.4 58.5033 15.52V22H54.7593V9.088H58.3353V10.576C58.8153 10.032 59.3993 9.616 60.0872 9.328C60.7913 9.04 61.5593 8.896 62.3913 8.896C63.3033 8.896 64.1273 9.08 64.8633 9.448C65.5993 9.8 66.1913 10.32 66.6393 11.008C67.1673 10.336 67.8313 9.816 68.6313 9.448C69.4473 9.08 70.3353 8.896 71.2953 8.896ZM86.2158 22.192C84.8558 22.192 83.6318 21.912 82.5438 21.352C81.4718 20.776 80.6318 19.984 80.0238 18.976C79.4158 17.968 79.1118 16.824 79.1118 15.544C79.1118 14.264 79.4158 13.12 80.0238 12.112C80.6318 11.104 81.4718 10.32 82.5438 9.76C83.6318 9.184 84.8558 8.896 86.2158 8.896C87.5758 8.896 88.7918 9.184 89.8638 9.76C90.9358 10.32 91.7758 11.104 92.3838 12.112C92.9918 13.12 93.2958 14.264 93.2958 15.544C93.2958 16.824 92.9918 17.968 92.3838 18.976C91.7758 19.984 90.9358 20.776 89.8638 21.352C88.7918 21.912 87.5758 22.192 86.2158 22.192ZM86.2158 19.12C87.1758 19.12 87.9598 18.8 88.5678 18.16C89.1918 17.504 89.5038 16.632 89.5038 15.544C89.5038 14.456 89.1918 13.592 88.5678 12.952C87.9598 12.296 87.1758 11.968 86.2158 11.968C85.2558 11.968 84.4638 12.296 83.8398 12.952C83.2158 13.592 82.9038 14.456 82.9038 15.544C82.9038 16.632 83.2158 17.504 83.8398 18.16C84.4638 18.8 85.2558 19.12 86.2158 19.12ZM108.95 4.192V22H105.374V20.512C104.446 21.632 103.102 22.192 101.342 22.192C100.126 22.192 99.0223 21.92 98.0303 21.376C97.0543 20.832 96.2863 20.056 95.7263 19.048C95.1663 18.04 94.8863 16.872 94.8863 15.544C94.8863 14.216 95.1663 13.048 95.7263 12.04C96.2863 11.032 97.0543 10.256 98.0303 9.712C99.0223 9.168 100.126 8.896 101.342 8.896C102.99 8.896 104.278 9.416 105.206 10.456V4.192H108.95ZM101.99 19.12C102.934 19.12 103.718 18.8 104.342 18.16C104.966 17.504 105.278 16.632 105.278 15.544C105.278 14.456 104.966 13.592 104.342 12.952C103.718 12.296 102.934 11.968 101.99 11.968C101.03 11.968 100.238 12.296 99.6143 12.952C98.9903 13.592 98.6783 14.456 98.6783 15.544C98.6783 16.632 98.9903 17.504 99.6143 18.16C100.238 18.8 101.03 19.12 101.99 19.12ZM118.56 22.192C117.2 22.192 115.976 21.912 114.888 21.352C113.816 20.776 112.976 19.984 112.368 18.976C111.76 17.968 111.456 16.824 111.456 15.544C111.456 14.264 111.76 13.12 112.368 12.112C112.976 11.104 113.816 10.32 114.888 9.76C115.976 9.184 117.2 8.896 118.56 8.896C119.92 8.896 121.136 9.184 122.208 9.76C123.28 10.32 124.12 11.104 124.728 12.112C125.336 13.12 125.64 14.264 125.64 15.544C125.64 16.824 125.336 17.968 124.728 18.976C124.12 19.984 123.28 20.776 122.208 21.352C121.136 21.912 119.92 22.192 118.56 22.192ZM118.56 19.12C119.52 19.12 120.304 18.8 120.912 18.16C121.536 17.504 121.848 16.632 121.848 15.544C121.848 14.456 121.536 13.592 120.912 12.952C120.304 12.296 119.52 11.968 118.56 11.968C117.6 11.968 116.808 12.296 116.184 12.952C115.56 13.592 115.248 14.456 115.248 15.544C115.248 16.632 115.56 17.504 116.184 18.16C116.808 18.8 117.6 19.12 118.56 19.12ZM131.718 10.792C132.166 10.168 132.766 9.696 133.518 9.376C134.286 9.056 135.166 8.896 136.158 8.896V12.352C135.742 12.32 135.462 12.304 135.318 12.304C134.246 12.304 133.406 12.608 132.798 13.216C132.19 13.808 131.886 14.704 131.886 15.904V22H128.142V9.088H131.718V10.792ZM144.411 22.192C143.051 22.192 141.827 21.912 140.739 21.352C139.667 20.776 138.827 19.984 138.219 18.976C137.611 17.968 137.307 16.824 137.307 15.544C137.307 14.264 137.611 13.12 138.219 12.112C138.827 11.104 139.667 10.32 140.739 9.76C141.827 9.184 143.051 8.896 144.411 8.896C145.771 8.896 146.987 9.184 148.059 9.76C149.131 10.32 149.971 11.104 150.579 12.112C151.187 13.12 151.491 14.264 151.491 15.544C151.491 16.824 151.187 17.968 150.579 18.976C149.971 19.984 149.131 20.776 148.059 21.352C146.987 21.912 145.771 22.192 144.411 22.192ZM144.411 19.12C145.371 19.12 146.155 18.8 146.763 18.16C147.387 17.504 147.699 16.632 147.699 15.544C147.699 14.456 147.387 13.592 146.763 12.952C146.155 12.296 145.371 11.968 144.411 11.968C143.451 11.968 142.659 12.296 142.035 12.952C141.411 13.592 141.099 14.456 141.099 15.544C141.099 16.632 141.411 17.504 142.035 18.16C142.659 18.8 143.451 19.12 144.411 19.12ZM27.1624 37.896C28.7784 37.896 30.0584 38.376 31.0024 39.336C31.9624 40.28 32.4424 41.704 32.4424 43.608V51H28.6984V44.184C28.6984 43.16 28.4824 42.4 28.0504 41.904C27.6344 41.392 27.0344 41.136 26.2504 41.136C25.3704 41.136 24.6744 41.424 24.1624 42C23.6504 42.56 23.3944 43.4 23.3944 44.52V51H19.6504V44.184C19.6504 42.152 18.8344 41.136 17.2024 41.136C16.3384 41.136 15.6504 41.424 15.1384 42C14.6264 42.56 14.3704 43.4 14.3704 44.52V51H10.6264V38.088H14.2024V39.576C14.6824 39.032 15.2664 38.616 15.9544 38.328C16.6584 38.04 17.4264 37.896 18.2584 37.896C19.1704 37.896 19.9944 38.08 20.7304 38.448C21.4664 38.8 22.0584 39.32 22.5064 40.008C23.0344 39.336 23.6984 38.816 24.4984 38.448C25.3144 38.08 26.2024 37.896 27.1624 37.896ZM35.7983 38.088H39.5423V51H35.7983V38.088ZM37.6703 36.288C36.9823 36.288 36.4223 36.088 35.9903 35.688C35.5583 35.288 35.3423 34.792 35.3423 34.2C35.3423 33.608 35.5583 33.112 35.9903 32.712C36.4223 32.312 36.9823 32.112 37.6703 32.112C38.3583 32.112 38.9183 32.304 39.3503 32.688C39.7823 33.072 39.9983 33.552 39.9983 34.128C39.9983 34.752 39.7823 35.272 39.3503 35.688C38.9183 36.088 38.3583 36.288 37.6703 36.288ZM50.8651 37.896C52.4651 37.896 53.7531 38.376 54.7291 39.336C55.7211 40.296 56.2171 41.72 56.2171 43.608V51H52.4731V44.184C52.4731 43.16 52.2491 42.4 51.8011 41.904C51.3531 41.392 50.7051 41.136 49.8571 41.136C48.9131 41.136 48.1611 41.432 47.6011 42.024C47.0411 42.6 46.7611 43.464 46.7611 44.616V51H43.0171V38.088H46.5931V39.6C47.0891 39.056 47.7051 38.64 48.4411 38.352C49.1771 38.048 49.9851 37.896 50.8651 37.896ZM59.6108 38.088H63.3548V51H59.6108V38.088ZM61.4828 36.288C60.7948 36.288 60.2348 36.088 59.8028 35.688C59.3708 35.288 59.1548 34.792 59.1548 34.2C59.1548 33.608 59.3708 33.112 59.8028 32.712C60.2348 32.312 60.7948 32.112 61.4828 32.112C62.1708 32.112 62.7308 32.304 63.1628 32.688C63.5948 33.072 63.8108 33.552 63.8108 34.128C63.8108 34.752 63.5948 35.272 63.1628 35.688C62.7308 36.088 62.1708 36.288 61.4828 36.288ZM83.3656 37.896C84.9816 37.896 86.2616 38.376 87.2056 39.336C88.1656 40.28 88.6456 41.704 88.6456 43.608V51H84.9016V44.184C84.9016 43.16 84.6856 42.4 84.2536 41.904C83.8376 41.392 83.2376 41.136 82.4536 41.136C81.5736 41.136 80.8776 41.424 80.3656 42C79.8536 42.56 79.5976 43.4 79.5976 44.52V51H75.8536V44.184C75.8536 42.152 75.0376 41.136 73.4056 41.136C72.5416 41.136 71.8536 41.424 71.3416 42C70.8296 42.56 70.5736 43.4 70.5736 44.52V51H66.8296V38.088H70.4056V39.576C70.8856 39.032 71.4696 38.616 72.1576 38.328C72.8616 38.04 73.6296 37.896 74.4616 37.896C75.3736 37.896 76.1976 38.08 76.9336 38.448C77.6696 38.8 78.2616 39.32 78.7096 40.008C79.2376 39.336 79.9016 38.816 80.7016 38.448C81.5176 38.08 82.4056 37.896 83.3656 37.896ZM97.2094 37.896C99.2094 37.896 100.745 38.376 101.817 39.336C102.889 40.28 103.425 41.712 103.425 43.632V51H99.9214V49.392C99.2174 50.592 97.9054 51.192 95.9854 51.192C94.9934 51.192 94.1294 51.024 93.3934 50.688C92.6734 50.352 92.1214 49.888 91.7374 49.296C91.3534 48.704 91.1614 48.032 91.1614 47.28C91.1614 46.08 91.6094 45.136 92.5054 44.448C93.4174 43.76 94.8174 43.416 96.7054 43.416H99.6814C99.6814 42.6 99.4334 41.976 98.9374 41.544C98.4414 41.096 97.6974 40.872 96.7054 40.872C96.0174 40.872 95.3374 40.984 94.6654 41.208C94.0094 41.416 93.4494 41.704 92.9854 42.072L91.6414 39.456C92.3454 38.96 93.1854 38.576 94.1614 38.304C95.1534 38.032 96.1694 37.896 97.2094 37.896ZM96.9214 48.672C97.5614 48.672 98.1294 48.528 98.6254 48.24C99.1214 47.936 99.4734 47.496 99.6814 46.92V45.6H97.1134C95.5774 45.6 94.8094 46.104 94.8094 47.112C94.8094 47.592 94.9934 47.976 95.3614 48.264C95.7454 48.536 96.2654 48.672 96.9214 48.672ZM106.814 33.192H110.558V51H106.814V33.192ZM114.033 38.088H117.777V51H114.033V38.088ZM115.905 36.288C115.217 36.288 114.657 36.088 114.225 35.688C113.793 35.288 113.577 34.792 113.577 34.2C113.577 33.608 113.793 33.112 114.225 32.712C114.657 32.312 115.217 32.112 115.905 32.112C116.593 32.112 117.153 32.304 117.585 32.688C118.017 33.072 118.233 33.552 118.233 34.128C118.233 34.752 118.017 35.272 117.585 35.688C117.153 36.088 116.593 36.288 115.905 36.288ZM125.595 51.192C124.523 51.192 123.475 51.064 122.451 50.808C121.427 50.536 120.611 50.2 120.003 49.8L121.251 47.112C121.827 47.48 122.523 47.784 123.339 48.024C124.155 48.248 124.955 48.36 125.739 48.36C127.323 48.36 128.115 47.968 128.115 47.184C128.115 46.816 127.899 46.552 127.467 46.392C127.035 46.232 126.371 46.096 125.475 45.984C124.419 45.824 123.547 45.64 122.859 45.432C122.171 45.224 121.571 44.856 121.059 44.328C120.563 43.8 120.315 43.048 120.315 42.072C120.315 41.256 120.547 40.536 121.011 39.912C121.491 39.272 122.179 38.776 123.075 38.424C123.987 38.072 125.059 37.896 126.291 37.896C127.203 37.896 128.107 38 129.003 38.208C129.915 38.4 130.667 38.672 131.259 39.024L130.011 41.688C128.875 41.048 127.635 40.728 126.291 40.728C125.491 40.728 124.891 40.84 124.491 41.064C124.091 41.288 123.891 41.576 123.891 41.928C123.891 42.328 124.107 42.608 124.539 42.768C124.971 42.928 125.659 43.08 126.603 43.224C127.659 43.4 128.523 43.592 129.195 43.8C129.867 43.992 130.451 44.352 130.947 44.88C131.443 45.408 131.691 46.144 131.691 47.088C131.691 47.888 131.451 48.6 130.971 49.224C130.491 49.848 129.787 50.336 128.859 50.688C127.947 51.024 126.859 51.192 125.595 51.192ZM142.329 50.376C141.961 50.648 141.505 50.856 140.961 51C140.433 51.128 139.873 51.192 139.281 51.192C137.745 51.192 136.553 50.8 135.705 50.016C134.873 49.232 134.457 48.08 134.457 46.56V41.256H132.465V38.376H134.457V35.232H138.201V38.376H141.417V41.256H138.201V46.512C138.201 47.056 138.337 47.48 138.609 47.784C138.897 48.072 139.297 48.216 139.809 48.216C140.401 48.216 140.905 48.056 141.321 47.736L142.329 50.376ZM144.431 38.088H148.175V51H144.431V38.088ZM146.303 36.288C145.615 36.288 145.055 36.088 144.623 35.688C144.191 35.288 143.975 34.792 143.975 34.2C143.975 33.608 144.191 33.112 144.623 32.712C145.055 32.312 145.615 32.112 146.303 32.112C146.991 32.112 147.551 32.304 147.983 32.688C148.415 33.072 148.631 33.552 148.631 34.128C148.631 34.752 148.415 35.272 147.983 35.688C147.551 36.088 146.991 36.288 146.303 36.288ZM157.89 51.192C156.514 51.192 155.274 50.912 154.17 50.352C153.082 49.776 152.226 48.984 151.602 47.976C150.994 46.968 150.69 45.824 150.69 44.544C150.69 43.264 150.994 42.12 151.602 41.112C152.226 40.104 153.082 39.32 154.17 38.76C155.274 38.184 156.514 37.896 157.89 37.896C159.25 37.896 160.434 38.184 161.442 38.76C162.466 39.32 163.21 40.128 163.674 41.184L160.77 42.744C160.098 41.56 159.13 40.968 157.866 40.968C156.89 40.968 156.082 41.288 155.442 41.928C154.802 42.568 154.482 43.44 154.482 44.544C154.482 45.648 154.802 46.52 155.442 47.16C156.082 47.8 156.89 48.12 157.866 48.12C159.146 48.12 160.114 47.528 160.77 46.344L163.674 47.928C163.21 48.952 162.466 49.752 161.442 50.328C160.434 50.904 159.25 51.192 157.89 51.192Z" fill="black"/>
<rect x="29" y="25" width="122" height="3" fill="#E39C9C"/>
</svg>
